<?xml version="1.0" encoding="UTF-8" standalone="no"?>
<svg
   xmlns:dc="http://purl.org/dc/elements/1.1/"
   xmlns:cc="http://creativecommons.org/ns#"
   xmlns:rdf="http://www.w3.org/1999/02/22-rdf-syntax-ns#"
   xmlns:svg="http://www.w3.org/2000/svg"
   xmlns="http://www.w3.org/2000/svg"
   xmlns:sodipodi="http://sodipodi.sourceforge.net/DTD/sodipodi-0.dtd"
   xmlns:inkscape="http://www.inkscape.org/namespaces/inkscape"
   sodipodi:docname="icon.svg"
   inkscape:version="1.0 (4035a4fb49, 2020-05-01)"
   id="svg8"
   version="1.1"
   viewBox="0 0 210 297"
   height="297mm"
   width="210mm">
  <defs
     id="defs2">
    <filter
       id="filter1078"
       inkscape:label="Drop Shadow"
       style="color-interpolation-filters:sRGB;">
      <feFlood
         id="feFlood1068"
         result="flood"
         flood-color="rgb(0,0,0)"
         flood-opacity="0.498039" />
      <feComposite
         id="feComposite1070"
         result="composite1"
         operator="in"
         in2="SourceGraphic"
         in="flood" />
      <feGaussianBlur
         id="feGaussianBlur1072"
         result="blur"
         stdDeviation="3"
         in="composite1" />
      <feOffset
         id="feOffset1074"
         result="offset"
         dy="6"
         dx="6" />
      <feComposite
         id="feComposite1076"
         result="composite2"
         operator="over"
         in2="offset"
         in="SourceGraphic" />
    </filter>
  </defs>
  <sodipodi:namedview
     inkscape:window-maximized="1"
     inkscape:window-y="-8"
     inkscape:window-x="-8"
     inkscape:window-height="706"
     inkscape:window-width="1024"
     showguides="false"
     inkscape:snap-global="false"
     showgrid="false"
     inkscape:document-rotation="0"
     inkscape:current-layer="layer1"
     inkscape:document-units="mm"
     inkscape:cy="448.68034"
     inkscape:cx="330.30875"
     inkscape:zoom="0.35"
     inkscape:pageshadow="2"
     inkscape:pageopacity="0.0"
     borderopacity="1.0"
     bordercolor="#666666"
     pagecolor="#ffffff"
     id="base" />
  <metadata
     id="metadata5">
    <rdf:RDF>
      <cc:Work
         rdf:about="">
        <dc:format>image/svg+xml</dc:format>
        <dc:type
           rdf:resource="http://purl.org/dc/dcmitype/StillImage" />
        <dc:title></dc:title>
      </cc:Work>
    </rdf:RDF>
  </metadata>
  <g
     style="display:inline"
     inkscape:label="Layer 2"
     id="layer2"
     inkscape:groupmode="layer" />
  <g
     transform="matrix(0.71034639,0,0,0.71034639,4.1387646,-21.382844)"
     id="g1060">
    <g
       aria-label="SPA"
       transform="matrix(0.94276839,0,0,1.0607059,5.2809227,0.53453906)"
       id="text921"
       style="font-size:96.0086px;line-height:1.25;font-family:sans-serif;word-spacing:0px;display:inline;fill:#ee6c4d;fill-opacity:1;stroke-width:2.40022">
      <path
         d="m 145.64755,140.39975 h 11.86043 v -26.20547 h 13.40746 c 14.6263,0 26.5805,-10.96973 26.5805,-24.424065 0,-13.735605 -11.9542,-24.939733 -26.5805,-24.939733 h -25.26789 z m 25.26789,-37.92527 -13.40746,-0.0469 V 76.597161 h 13.40746 c 8.1101,0 14.72006,5.8599 14.72006,13.079296 0,7.078759 -6.60996,12.844903 -14.72006,12.798023 z"
         style="font-style:normal;font-variant:normal;font-weight:normal;font-stretch:normal;font-size:96.0086px;font-family:'LEMON MILK';-inkscape-font-specification:'LEMON MILK, Normal';font-variant-ligatures:normal;font-variant-caps:normal;font-variant-numeric:normal;font-variant-east-asian:normal;fill:#ee6c4d;fill-opacity:1;stroke-width:2.40022"
         id="path981" />
      <path
         d="m 245.64088,140.39975 h 12.8449 L 222.95135,63.283468 h -0.70319 l -35.53443,77.116282 h 12.8449 l 5.15671,-11.4854 h 35.76883 z m -36.33138,-21.65819 13.31369,-29.533895 13.26682,29.533895 z"
         style="font-style:normal;font-variant:normal;font-weight:normal;font-stretch:normal;font-size:96.0086px;font-family:'LEMON MILK';-inkscape-font-specification:'LEMON MILK, Normal';font-variant-ligatures:normal;font-variant-caps:normal;font-variant-numeric:normal;font-variant-east-asian:normal;fill:#ee6c4d;fill-opacity:1;stroke-width:2.40022"
         id="path983" />
    </g>
    <path
       id="path979"
       style="font-style:normal;font-variant:normal;font-weight:normal;font-stretch:normal;font-size:96.0086px;font-family:'LEMON MILK';-inkscape-font-specification:'LEMON MILK, Normal';font-variant-ligatures:normal;font-variant-caps:normal;font-variant-numeric:normal;font-variant-east-asian:normal;fill:#ee6c4d;fill-opacity:1;stroke-width:2.40022"
       d="m 112.62157,69.02266 c -6.08696,0 -11.59652,1.732934 -15.830061,4.753713 v 31.315917 c 3.120257,2.1388 6.736571,3.78341 10.204561,5.32474 8.81329,3.79721 18.75183,8.01615 18.75183,15.00115 0,5.76614 -6.42249,9.84436 -14.90761,9.84436 -5.53944,0 -10.50522,-1.96342 -14.048781,-5.51284 v 14.60221 c 4.003281,1.83603 8.689751,2.86494 13.908221,2.86494 15.3295,0 26.95545,-8.62582 26.95545,-22.03328 0,-11.90731 -9.28222,-17.67319 -21.23643,-22.92366 -9.18832,-3.937855 -16.17319,-6.047534 -16.17319,-11.954312 0,-5.344229 5.53194,-9.657292 12.47006,-9.657292 5.48486,0 10.68832,2.859707 13.03228,7.969539 l 8.81342,-6.094201 C 131.4673,74.226025 123.40379,69.02266 112.62157,69.02266 Z" />
  </g>
  <g
     style="display:inline"
     id="layer1"
     inkscape:groupmode="layer"
     inkscape:label="Layer 1">
    <path
       style="display:inline;fill:#3d5a80;fill-opacity:1;stroke-width:0.102834"
       d="m 30.501783,29.076893 36.83512,-6.327559 V 86.024903 L 29.765081,78.642755 Z"
       id="rect10-0" />
    <g
       transform="matrix(0.55171027,0,0,0.55171027,16.25827,-5.9310035)"
       style="filter:url(#filter1078)"
       id="g1066">
      <path
         style="fill:none;stroke:#ffffff;stroke-width:12.2822;stroke-linecap:butt;stroke-linejoin:miter;stroke-miterlimit:4;stroke-dasharray:none;stroke-opacity:1"
         d="M 72.102021,55.069904 71.036259,165.72158"
         id="path1015" />
      <path
         id="path1015-6"
         d="M 45.910637,55.868753 44.842817,162.22318"
         style="display:inline;fill:none;stroke:#ffffff;stroke-width:12.053;stroke-linecap:butt;stroke-linejoin:miter;stroke-miterlimit:4;stroke-dasharray:none;stroke-opacity:1" />
      <path
         id="path1015-9"
         d="M 92.944887,85.018972 24.119165,94.586154"
         style="display:inline;fill:none;stroke:#ffffff;stroke-width:12.553;stroke-linecap:butt;stroke-linejoin:miter;stroke-miterlimit:4;stroke-dasharray:none;stroke-opacity:1" />
      <path
         style="display:inline;fill:none;stroke:#ffffff;stroke-width:12.553;stroke-linecap:butt;stroke-linejoin:miter;stroke-miterlimit:4;stroke-dasharray:none;stroke-opacity:1"
         d="m 93.420963,123.5085 -69.243332,5.81998"
         id="path1015-9-3" />
    </g>
  </g>
</svg>
