<?xml version="1.0" encoding="UTF-8"?>
<svg width="666.67" height="666.67" version="1.1" viewBox="0 0 666.67 666.67" xml:space="preserve" xmlns="http://www.w3.org/2000/svg" xmlns:cc="http://creativecommons.org/ns#" xmlns:dc="http://purl.org/dc/elements/1.1/" xmlns:rdf="http://www.w3.org/1999/02/22-rdf-syntax-ns#"><metadata><rdf:RDF><cc:Work rdf:about=""><dc:format>image/svg+xml</dc:format><dc:type rdf:resource="http://purl.org/dc/dcmitype/StillImage"/><dc:title/></cc:Work></rdf:RDF></metadata><defs><clipPath id="clipPath1127"><path d="m0 500h500v-500h-500z"/></clipPath><clipPath id="clipPath1159"><path d="m0 500h500v-500h-500z"/></clipPath><clipPath id="clipPath1167"><path d="m62.499 173.59h365.1v-36.619h-365.1z"/></clipPath><clipPath id="clipPath1183"><path d="m0 500h500v-500h-500z"/></clipPath><clipPath id="clipPath1191"><path d="m173.9 92.216h142.29v-11.89h-142.29z"/></clipPath><clipPath id="clipPath1217"><path d="m190.85 136.96h108.4v-44.756h-108.4z"/></clipPath><clipPath id="clipPath1237"><path d="m194.9 136.96h100.78v-18.001h-100.78z"/></clipPath></defs><g transform="matrix(1.3333 0 0 -1.3333 0 666.67)"><g clip-path="url(#clipPath1127)"/><path d="m478.32 109.05h-445.66v303.04h445.66z" fill="#263238"/><path d="m478.32 109.05h-445.66v44.7h445.66z" fill="#fff"/><g transform="matrix(1.2206 0 0 1.2206 -43.626 -58.146)" fill="#999"><g clip-path="url(#clipPath1159)" fill="#999"><g fill="#999"><g fill="#999"><g clip-path="url(#clipPath1167)" fill="#999" opacity=".39999"><path d="m427.6 136.97h-365.1v36.62h365.1z" fill="#999"/></g></g></g></g></g><path d="m342.33 39.903h-173.68v14.513h173.68z" fill="#fff"/><g transform="matrix(1.2206 0 0 1.2206 -43.626 -58.146)" fill="#808080"><g clip-path="url(#clipPath1183)" fill="#808080"><g fill="#808080"><g fill="#808080"><g clip-path="url(#clipPath1191)" fill="#808080" opacity=".3"><path d="m316.19 80.326h-142.29v11.89h142.29z" fill="#808080"/></g></g></g></g></g><g transform="matrix(1.2206 0 0 1.2206 321.65 54.406)" fill="#fff"><path d="m0 0h-108.4l2.754 20.637 0.137 0.972 0.254 1.937 0.128 0.973 0.263 1.936 0.036 0.3 0.091 0.673 0.264 1.936 0.127 0.973 1.928 14.419h96.438l1.818-13.601 0.091-0.654 0.301-2.255 0.081-0.654 0.119-0.837 0.19-1.418 0.082-0.654 0.3-2.264 0.091-0.646z" fill="#fff"/></g><g transform="matrix(1.2206 0 0 1.2206 -43.626 -58.146)" fill="#ccc"><g fill="#ccc"><g clip-path="url(#clipPath1217)" fill="#ccc" opacity=".39999"><g transform="translate(299.25 92.207)" fill="#ccc"><path d="m0 0h-108.4l2.754 20.637 0.137 0.972 0.254 1.937 0.128 0.973 0.263 1.936 0.036 0.3 0.091 0.673 0.264 1.936 0.127 0.973 1.928 14.419h96.438l1.818-13.601 0.091-0.654 0.301-2.255 0.081-0.654 0.119-0.837 0.19-1.418 0.082-0.654 0.3-2.264 0.091-0.646z" fill="#ccc"/></g></g></g></g><g transform="matrix(1.2206 0 0 1.2206 262.74 134.4)"><path d="m0 0c0-3.341-2.708-6.048-6.048-6.048-3.341 0-6.049 2.707-6.049 6.048s2.708 6.049 6.049 6.049c3.34 0 6.048-2.708 6.048-6.049" fill="#37474f"/></g><g transform="matrix(1.2206 0 0 1.2206 -43.626 -58.146)"><g clip-path="url(#clipPath1237)" opacity=".16"><g transform="translate(295.68 118.96)"><path d="m0 0-100.78 3.582 1.927 14.419h96.438z"/></g></g></g><path d="m457.75 174.77h-404.52v217.61h404.52z" fill="#fff"/><path d="m457.75 174.77h-404.52v217.61h404.52z" fill="#37474f"/></g></svg>
